# xmcd
#
# Track frame offsets:
#	200
#	20190
#	32415
#	50637
#	64372
#	78922
#	94732
#	112575
#	128495
#	139970
#	159512
#	179445
#	193577
#	213277
#	234730
#	251082
#	271862
#
# Disc length: 3878 seconds
# Revision: 4
# Processed by: cddbd v1.5.2PL0 Copyright (c) Steve Scherf et al.
# Submitted via: dBpowerAMP V12.0
#
DISCID=ea0f2411
DTITLE=Gary Morris - Live
DYEAR=1995
DGENRE=Country
TTITLE0=Live
TTITLE1=My Finest Hour
TTITLE2=Draggin' The Lake For The Moon
TTITLE3=These Days
TTITLE4=Bread And Water
TTITLE5=How Did I Get Here
TTITLE6=Bear Joke
TTITLE7=Nothin' But The Blues
TTITLE8=How Great Thou Art
TTITLE9=South December Road
TTITLE10=Leave Me Lonely
TTITLE11=Plain Brown Wrapper
TTITLE12=Bed Of Roses
TTITLE13=Wind Beneath My Wings
TTITLE14=Bring Him Home
TTITLE15=Amazing Grace
TTITLE16=Live
EXTD=
EXTT0=
EXTT1=
EXTT2=
EXTT3=
EXTT4=
EXTT5=
EXTT6=
EXTT7=
EXTT8=
EXTT9=
EXTT10=
EXTT11=
EXTT12=
EXTT13=
EXTT14=
EXTT15=
EXTT16=
PLAYORDER=
